<?xml version="1.0" encoding="UTF-8" standalone="no"?>
<!DOCTYPE svg PUBLIC "-//W3C//DTD SVG 1.1//EN"
 "http://www.w3.org/Graphics/SVG/1.1/DTD/svg11.dtd">
<!-- Generated by graphviz version 10.0.1 (0)
 -->
<!-- Pages: 1 -->
<svg width="4722pt" height="401pt"
 viewBox="0.00 0.00 4721.65 401.00" xmlns="http://www.w3.org/2000/svg" xmlns:xlink="http://www.w3.org/1999/xlink">
<g id="graph0" class="graph" transform="scale(1 1) rotate(0) translate(4 397)">
<polygon fill="white" stroke="none" points="-4,4 -4,-397 4717.65,-397 4717.65,4 -4,4"/>
<!-- 0 -->
<g id="node1" class="node">
<title>0</title>
<ellipse fill="none" stroke="black" cx="3196.75" cy="-285.75" rx="179.05" ry="18"/>
<text text-anchor="middle" x="3196.75" y="-281.07" font-family="Times,serif" font-size="14.00">Cryolitia &lt;Cryolitia@gmail.com&gt;</text>
</g>
<!-- 1 -->
<g id="node2" class="node">
<title>1</title>
<ellipse fill="none" stroke="black" cx="404.75" cy="-18" rx="404.75" ry="18"/>
<text text-anchor="middle" x="404.75" y="-13.32" font-family="Times,serif" font-size="14.00">Cryolitia (https://github.com/project&#45;trans only) &lt;cryolitia@project&#45;trans.org&gt;</text>
</g>
<!-- 0&#45;&gt;1 -->
<g id="edge4" class="edge">
<title>0&#45;&gt;1</title>
<path fill="none" stroke="black" d="M3030.98,-278.74C2894.66,-273.17 2696.5,-263.64 2523.75,-249.75 2139.03,-218.82 974.35,-85.09 556.23,-36.62"/>
<polygon fill="black" stroke="black" points="556.82,-33.17 546.49,-35.49 556.02,-40.12 556.82,-33.17"/>
<text text-anchor="middle" x="1667" y="-147.2" font-family="Times,serif" font-size="14.00">Careful</text>
</g>
<!-- 2 -->
<g id="node3" class="node">
<title>2</title>
<ellipse fill="none" stroke="black" cx="3120.75" cy="-196.5" rx="247.45" ry="18"/>
<text text-anchor="middle" x="3120.75" y="-191.82" font-family="Times,serif" font-size="14.00">Coelacanthus &lt;CoelacanthusHex@gmail.com&gt;</text>
</g>
<!-- 0&#45;&gt;2 -->
<g id="edge7" class="edge">
<title>0&#45;&gt;2</title>
<path fill="none" stroke="black" d="M3138.51,-268.28C3130.49,-263.56 3123.29,-257.51 3118.25,-249.75 3113.75,-242.81 3112.77,-234.2 3113.37,-225.98"/>
<polygon fill="black" stroke="black" points="3116.79,-226.75 3114.85,-216.33 3109.88,-225.69 3116.79,-226.75"/>
<text text-anchor="middle" x="3144" y="-236.45" font-family="Times,serif" font-size="14.00">Careful</text>
</g>
<!-- 3 -->
<g id="node4" class="node">
<title>3</title>
<ellipse fill="none" stroke="black" cx="4017.75" cy="-18" rx="345.83" ry="18"/>
<text text-anchor="middle" x="4017.75" y="-13.32" font-family="Times,serif" font-size="14.00">Liu, Hongwu (Name on Passport) &lt;CoelacanthusHex@gmail.com&gt;</text>
</g>
<!-- 0&#45;&gt;3 -->
<g id="edge10" class="edge">
<title>0&#45;&gt;3</title>
<path fill="none" stroke="black" d="M3295.21,-270.29C3316.69,-265.28 3338.91,-258.6 3358.75,-249.75 3369.53,-244.94 3523,-134.14 3530.75,-125.25 3554.34,-98.2 3538.72,-73.65 3568.75,-54 3584.98,-43.38 3656.06,-35.74 3737.05,-30.36"/>
<polygon fill="black" stroke="black" points="3737.27,-33.85 3747.03,-29.71 3736.82,-26.87 3737.27,-33.85"/>
<text text-anchor="middle" x="3533" y="-147.2" font-family="Times,serif" font-size="14.00">Careful</text>
</g>
<!-- 4 -->
<g id="node5" class="node">
<title>4</title>
<ellipse fill="none" stroke="black" cx="2490.75" cy="-18" rx="256.39" ry="18"/>
<text text-anchor="middle" x="2490.75" y="-13.32" font-family="Times,serif" font-size="14.00">Celeste Liu (For AOSC) &lt;coelacanthus@aosc.io&gt;</text>
</g>
<!-- 0&#45;&gt;4 -->
<g id="edge13" class="edge">
<title>0&#45;&gt;4</title>
<path fill="none" stroke="black" d="M3039.47,-276.83C2989.67,-271.74 2934.83,-263.39 2885.75,-249.75 2794.12,-224.28 2751.36,-234.21 2691.25,-160.5 2670.71,-135.31 2696.11,-113.76 2674.75,-89.25 2653.65,-65.04 2623.27,-49.14 2593.25,-38.7"/>
<polygon fill="black" stroke="black" points="2594.69,-35.5 2584.1,-35.71 2592.52,-42.15 2594.69,-35.5"/>
<text text-anchor="middle" x="2717" y="-147.2" font-family="Times,serif" font-size="14.00">Careful</text>
</g>
<!-- 5 -->
<g id="node6" class="node">
<title>5</title>
<ellipse fill="none" stroke="black" cx="2966.75" cy="-18" rx="201.15" ry="18"/>
<text text-anchor="middle" x="2966.75" y="-13.32" font-family="Times,serif" font-size="14.00">Coelacanthus &lt;i@coelacanthus.moe&gt;</text>
</g>
<!-- 0&#45;&gt;5 -->
<g id="edge16" class="edge">
<title>0&#45;&gt;5</title>
<path fill="none" stroke="black" d="M3062.92,-273.43C2982.1,-263.5 2889.98,-245.62 2864.75,-214.5 2844.66,-189.71 2802.64,-143.78 2867.75,-54 2871.28,-49.14 2875.53,-44.96 2880.27,-41.35"/>
<polygon fill="black" stroke="black" points="2882.15,-44.3 2888.64,-35.92 2878.34,-38.43 2882.15,-44.3"/>
<text text-anchor="middle" x="2860" y="-147.2" font-family="Times,serif" font-size="14.00">Careful</text>
</g>
<!-- 6 -->
<g id="node7" class="node">
<title>6</title>
<ellipse fill="none" stroke="black" cx="3419.75" cy="-18" rx="234.29" ry="18"/>
<text text-anchor="middle" x="3419.75" y="-13.32" font-family="Times,serif" font-size="14.00">Coelacanthus &lt;coelacanthus@outlook.com&gt;</text>
</g>
<!-- 0&#45;&gt;6 -->
<g id="edge19" class="edge">
<title>0&#45;&gt;6</title>
<path fill="none" stroke="black" d="M3282.86,-269.65C3316.71,-259.49 3353.07,-242.58 3376.75,-214.5 3423.71,-158.83 3392.4,-124.73 3409.75,-54 3410.28,-51.84 3410.86,-49.61 3411.45,-47.37"/>
<polygon fill="black" stroke="black" points="3414.8,-48.41 3414.1,-37.84 3408.05,-46.53 3414.8,-48.41"/>
<text text-anchor="middle" x="3430" y="-147.2" font-family="Times,serif" font-size="14.00">Careful</text>
</g>
<!-- 7 -->
<g id="node8" class="node">
<title>7</title>
<ellipse fill="none" stroke="black" cx="4547.75" cy="-18" rx="165.9" ry="18"/>
<text text-anchor="middle" x="4547.75" y="-13.32" font-family="Times,serif" font-size="14.00">Estela ad Astra &lt;i@estela.cn&gt;</text>
</g>
<!-- 0&#45;&gt;7 -->
<g id="edge23" class="edge">
<title>0&#45;&gt;7</title>
<path fill="none" stroke="black" d="M3294.21,-270.33C3323.59,-264.99 3355.73,-258.14 3384.75,-249.75 3467.01,-225.97 3481.22,-201.32 3563.75,-178.5 3726.48,-133.51 4212.73,-64.45 4434.84,-34.14"/>
<polygon fill="black" stroke="black" points="4435.25,-37.62 4444.68,-32.8 4434.3,-30.68 4435.25,-37.62"/>
<text text-anchor="middle" x="3748" y="-147.2" font-family="Times,serif" font-size="14.00">Careful</text>
</g>
<!-- 8 -->
<g id="node9" class="node">
<title>8</title>
<ellipse fill="none" stroke="black" cx="2490.75" cy="-107.25" rx="175.37" ry="18"/>
<text text-anchor="middle" x="2490.75" y="-102.58" font-family="Times,serif" font-size="14.00">Estela ad Astra &lt;i@estela.moe&gt;</text>
</g>
<!-- 0&#45;&gt;8 -->
<g id="edge26" class="edge">
<title>0&#45;&gt;8</title>
<path fill="none" stroke="black" d="M3020.04,-282.5C2895.61,-279.09 2740.78,-270.61 2679.75,-249.75 2611.1,-226.28 2547.03,-167.62 2514.03,-133.65"/>
<polygon fill="black" stroke="black" points="2516.81,-131.49 2507.37,-126.68 2511.74,-136.33 2516.81,-131.49"/>
<text text-anchor="middle" x="2636" y="-191.82" font-family="Times,serif" font-size="14.00">Careful</text>
</g>
<!-- 15 -->
<g id="node16" class="node">
<title>15</title>
<ellipse fill="none" stroke="black" cx="3728.75" cy="-196.5" rx="155.9" ry="18"/>
<text text-anchor="middle" x="3728.75" y="-191.82" font-family="Times,serif" font-size="14.00">Clansty Icaria &lt;i@gao4.pw&gt;</text>
</g>
<!-- 0&#45;&gt;15 -->
<g id="edge34" class="edge">
<title>0&#45;&gt;15</title>
<path fill="none" stroke="black" d="M3356.69,-277.43C3434.81,-272.19 3519.63,-263.56 3555.75,-249.75 3567.86,-245.12 3567.49,-237.92 3579.25,-232.5 3595.29,-225.11 3613.05,-219.2 3630.55,-214.51"/>
<polygon fill="black" stroke="black" points="3631.11,-217.97 3639.93,-212.11 3629.37,-211.19 3631.11,-217.97"/>
<text text-anchor="middle" x="3605" y="-236.45" font-family="Times,serif" font-size="14.00">Default</text>
</g>
<!-- 16 -->
<g id="node17" class="node">
<title>16</title>
<ellipse fill="none" stroke="black" cx="4164.75" cy="-196.5" rx="200.1" ry="18"/>
<text text-anchor="middle" x="4164.75" y="-191.82" font-family="Times,serif" font-size="14.00">Clansty Icaria &lt;hujl634@gmail.com&gt;</text>
</g>
<!-- 0&#45;&gt;16 -->
<g id="edge36" class="edge">
<title>0&#45;&gt;16</title>
<path fill="none" stroke="black" d="M3336.39,-274.14C3421.73,-267.5 3533.08,-258.56 3631.75,-249.75 3765.47,-237.82 3917.91,-222.72 4025.41,-211.83"/>
<polygon fill="black" stroke="black" points="4025.55,-215.33 4035.15,-210.84 4024.85,-208.37 4025.55,-215.33"/>
<text text-anchor="middle" x="3833" y="-236.45" font-family="Times,serif" font-size="14.00">Default</text>
</g>
<!-- 2&#45;&gt;0 -->
<g id="edge2" class="edge">
<title>2&#45;&gt;0</title>
<path fill="none" stroke="black" d="M3154.09,-214.67C3161.59,-219.66 3169.02,-225.65 3174.75,-232.5 3180.64,-239.53 3185.16,-248.37 3188.52,-256.76"/>
<polygon fill="black" stroke="black" points="3185.13,-257.68 3191.79,-265.92 3191.73,-255.33 3185.13,-257.68"/>
<text text-anchor="middle" x="3208.75" y="-236.45" font-family="Times,serif" font-size="14.00">Casual</text>
</g>
<!-- 2&#45;&gt;3 -->
<g id="edge9" class="edge">
<title>2&#45;&gt;3</title>
<path fill="none" stroke="black" d="M3144.87,-178.29C3164.26,-164.3 3192.07,-143.91 3215.75,-125.25 3235.12,-110 3277.8,-62.99 3300.75,-54 3302.13,-53.46 3553.68,-41.27 3758.4,-31.43"/>
<polygon fill="black" stroke="black" points="3758.32,-34.93 3768.14,-30.96 3757.99,-27.94 3758.32,-34.93"/>
<text text-anchor="middle" x="3281" y="-102.58" font-family="Times,serif" font-size="14.00">Careful</text>
</g>
<!-- 2&#45;&gt;4 -->
<g id="edge12" class="edge">
<title>2&#45;&gt;4</title>
<path fill="none" stroke="black" d="M3093.36,-178.22C3042.97,-147.4 2931.27,-83.4 2827.75,-54 2789.74,-43.2 2748.47,-35.66 2708.26,-30.42"/>
<polygon fill="black" stroke="black" points="2708.82,-26.96 2698.46,-29.18 2707.95,-33.9 2708.82,-26.96"/>
<text text-anchor="middle" x="3025" y="-102.58" font-family="Times,serif" font-size="14.00">Careful</text>
</g>
<!-- 2&#45;&gt;5 -->
<g id="edge15" class="edge">
<title>2&#45;&gt;5</title>
<path fill="none" stroke="black" d="M3113.39,-178.15C3098.1,-142.42 3063.52,-63.2 3053.75,-54 3048.34,-48.9 3042.09,-44.51 3035.47,-40.73"/>
<polygon fill="black" stroke="black" points="3037.4,-37.79 3026.91,-36.32 3034.19,-44.01 3037.4,-37.79"/>
<text text-anchor="middle" x="3116" y="-102.58" font-family="Times,serif" font-size="14.00">Careful</text>
</g>
<!-- 2&#45;&gt;6 -->
<g id="edge18" class="edge">
<title>2&#45;&gt;6</title>
<path fill="none" stroke="black" d="M3126.74,-178.25C3139.36,-142.31 3168.4,-62.09 3178.75,-54 3190.61,-44.74 3214.5,-37.93 3242.81,-32.91"/>
<polygon fill="black" stroke="black" points="3243.07,-36.41 3252.37,-31.32 3241.93,-29.51 3243.07,-36.41"/>
<text text-anchor="middle" x="3185" y="-102.58" font-family="Times,serif" font-size="14.00">Careful</text>
</g>
<!-- 2&#45;&gt;7 -->
<g id="edge24" class="edge">
<title>2&#45;&gt;7</title>
<path fill="none" stroke="black" d="M3320.67,-185.63C3375.09,-180.44 3425.66,-172.52 3449.75,-160.5 3488.51,-141.16 3483.28,-117.34 3516.25,-89.25 3537.65,-71.02 3541.96,-62.49 3568.75,-54 3653.94,-27.01 4283.56,-41.32 4372.75,-36 4388.6,-35.05 4405.23,-33.79 4421.67,-32.38"/>
<polygon fill="black" stroke="black" points="4421.84,-35.88 4431.5,-31.51 4421.23,-28.9 4421.84,-35.88"/>
<text text-anchor="middle" x="3542" y="-102.58" font-family="Times,serif" font-size="14.00">Careful</text>
</g>
<!-- 2&#45;&gt;8 -->
<g id="edge27" class="edge">
<title>2&#45;&gt;8</title>
<path fill="none" stroke="black" d="M2926.88,-185C2862.88,-179.62 2800.57,-171.75 2771.25,-160.5 2759.16,-155.86 2759.77,-148.11 2747.75,-143.25 2718.63,-131.47 2686.29,-123.51 2654.65,-118.17"/>
<polygon fill="black" stroke="black" points="2655.41,-114.75 2644.99,-116.62 2654.31,-121.66 2655.41,-114.75"/>
<text text-anchor="middle" x="2797" y="-147.2" font-family="Times,serif" font-size="14.00">Careful</text>
</g>
<!-- 8&#45;&gt;0 -->
<g id="edge3" class="edge">
<title>8&#45;&gt;0</title>
<path fill="none" stroke="black" d="M2490.13,-125.67C2490.18,-148.14 2493.22,-187.54 2511.75,-214.5 2528.41,-238.74 2539.73,-240.82 2567.75,-249.75 2646.55,-274.88 2851.79,-282.53 3006.57,-284.59"/>
<polygon fill="black" stroke="black" points="3006.06,-288.08 3016.11,-284.71 3006.15,-281.08 3006.06,-288.08"/>
<text text-anchor="middle" x="2535.75" y="-191.82" font-family="Times,serif" font-size="14.00">Casual</text>
</g>
<!-- 8&#45;&gt;1 -->
<g id="edge5" class="edge">
<title>8&#45;&gt;1</title>
<path fill="none" stroke="black" d="M2317.44,-104.28C2007.81,-100.3 1382.7,-90.05 1284.25,-71.25 1262.19,-67.04 1258.79,-58.36 1236.75,-54 1233.4,-53.34 942.5,-41.2 705.65,-31.4"/>
<polygon fill="black" stroke="black" points="706.06,-27.91 695.92,-30.99 705.77,-34.9 706.06,-27.91"/>
<text text-anchor="middle" x="1311" y="-57.95" font-family="Times,serif" font-size="14.00">Default</text>
</g>
<!-- 8&#45;&gt;2 -->
<g id="edge8" class="edge">
<title>8&#45;&gt;2</title>
<path fill="none" stroke="black" d="M2549.18,-124.62C2564.38,-129.76 2580.48,-136.02 2594.75,-143.25 2606.63,-149.27 2606.71,-156.04 2619.25,-160.5 2666.17,-177.18 2770.88,-185.94 2872.56,-190.53"/>
<polygon fill="black" stroke="black" points="2872.32,-194.03 2882.46,-190.97 2872.63,-187.03 2872.32,-194.03"/>
<text text-anchor="middle" x="2645" y="-147.2" font-family="Times,serif" font-size="14.00">Careful</text>
</g>
<!-- 8&#45;&gt;3 -->
<g id="edge11" class="edge">
<title>8&#45;&gt;3</title>
<path fill="none" stroke="black" d="M2653.49,-100.29C2775.21,-95 2945.65,-85.79 3094.75,-71.25 3150.79,-65.78 3164.17,-58.98 3220.25,-54 3416.31,-36.58 3466.12,-44.71 3662.75,-36 3694.46,-34.6 3727.76,-33.07 3760.72,-31.53"/>
<polygon fill="black" stroke="black" points="3760.55,-35.04 3770.38,-31.07 3760.22,-28.05 3760.55,-35.04"/>
<text text-anchor="middle" x="3246" y="-57.95" font-family="Times,serif" font-size="14.00">Careful</text>
</g>
<!-- 8&#45;&gt;4 -->
<g id="edge14" class="edge">
<title>8&#45;&gt;4</title>
<path fill="none" stroke="black" d="M2490.75,-89.01C2490.75,-77.18 2490.75,-61.2 2490.75,-47.5"/>
<polygon fill="black" stroke="black" points="2494.25,-47.72 2490.75,-37.72 2487.25,-47.72 2494.25,-47.72"/>
<text text-anchor="middle" x="2517" y="-57.95" font-family="Times,serif" font-size="14.00">Careful</text>
</g>
<!-- 8&#45;&gt;5 -->
<g id="edge17" class="edge">
<title>8&#45;&gt;5</title>
<path fill="none" stroke="black" d="M2573.94,-91C2656.53,-75.86 2783.06,-52.67 2870.08,-36.72"/>
<polygon fill="black" stroke="black" points="2870.59,-40.19 2879.79,-34.94 2869.33,-33.3 2870.59,-40.19"/>
<text text-anchor="middle" x="2797" y="-57.95" font-family="Times,serif" font-size="14.00">Careful</text>
</g>
<!-- 8&#45;&gt;6 -->
<g id="edge20" class="edge">
<title>8&#45;&gt;6</title>
<path fill="none" stroke="black" d="M2617.01,-94.39C2785.14,-78.6 3082.41,-50.68 3264.19,-33.61"/>
<polygon fill="black" stroke="black" points="3264.32,-37.11 3273.95,-32.69 3263.66,-30.14 3264.32,-37.11"/>
<text text-anchor="middle" x="3064" y="-57.95" font-family="Times,serif" font-size="14.00">Careful</text>
</g>
<!-- 8&#45;&gt;7 -->
<g id="edge21" class="edge">
<title>8&#45;&gt;7</title>
<path fill="none" stroke="black" d="M2651,-99.69C2862.83,-90.94 3216.41,-75.98 3276.75,-71.25 3345.2,-65.89 3361.75,-58.49 3430.25,-54 3848.32,-26.58 3954.49,-60.27 4372.75,-36 4388.72,-35.07 4405.49,-33.81 4422.05,-32.4"/>
<polygon fill="black" stroke="black" points="4422.32,-35.89 4431.97,-31.52 4421.7,-28.91 4422.32,-35.89"/>
<text text-anchor="middle" x="3456" y="-57.95" font-family="Times,serif" font-size="14.00">Careful</text>
</g>
<!-- 9 -->
<g id="node10" class="node">
<title>9</title>
<ellipse fill="none" stroke="black" cx="953.75" cy="-18" rx="125.92" ry="18"/>
<text text-anchor="middle" x="953.75" y="-13.32" font-family="Times,serif" font-size="14.00">saeziae &lt;i@estela.cn&gt;</text>
</g>
<!-- 8&#45;&gt;9 -->
<g id="edge28" class="edge">
<title>8&#45;&gt;9</title>
<path fill="none" stroke="black" d="M2325.86,-100.93C2150.38,-94.96 1864.63,-84.37 1618.25,-71.25 1500.27,-64.96 1205.36,-47.36 1087.75,-36 1076.9,-34.95 1065.57,-33.72 1054.29,-32.42"/>
<polygon fill="black" stroke="black" points="1054.89,-28.96 1044.55,-31.26 1054.07,-35.91 1054.89,-28.96"/>
<text text-anchor="middle" x="1645" y="-57.95" font-family="Times,serif" font-size="14.00">Careful</text>
</g>
<!-- 10 -->
<g id="node11" class="node">
<title>10</title>
<ellipse fill="none" stroke="black" cx="1266.75" cy="-18" rx="169.58" ry="18"/>
<text text-anchor="middle" x="1266.75" y="-13.32" font-family="Times,serif" font-size="14.00">Estela ad Astra &lt;i@estela.cat&gt;</text>
</g>
<!-- 8&#45;&gt;10 -->
<g id="edge29" class="edge">
<title>8&#45;&gt;10</title>
<path fill="none" stroke="black" d="M2340.08,-97.71C2136.87,-85.83 1763.75,-62.74 1445.75,-36 1430.74,-34.74 1415.01,-33.35 1399.39,-31.92"/>
<polygon fill="black" stroke="black" points="1399.83,-28.45 1389.55,-31.02 1399.19,-35.42 1399.83,-28.45"/>
<text text-anchor="middle" x="1931" y="-57.95" font-family="Times,serif" font-size="14.00">Careful</text>
</g>
<!-- 11 -->
<g id="node12" class="node">
<title>11</title>
<ellipse fill="none" stroke="black" cx="1629.75" cy="-18" rx="175.37" ry="18"/>
<text text-anchor="middle" x="1629.75" y="-13.32" font-family="Times,serif" font-size="14.00">Estela ad Astra &lt;jo@estela.cat&gt;</text>
</g>
<!-- 8&#45;&gt;11 -->
<g id="edge30" class="edge">
<title>8&#45;&gt;11</title>
<path fill="none" stroke="black" d="M2369.22,-93.93C2209.04,-77.7 1928.23,-49.25 1762.6,-32.46"/>
<polygon fill="black" stroke="black" points="1763.17,-29 1752.87,-31.48 1762.47,-35.97 1763.17,-29"/>
<text text-anchor="middle" x="2164" y="-57.95" font-family="Times,serif" font-size="14.00">Careful</text>
</g>
<!-- 12 -->
<g id="node13" class="node">
<title>12</title>
<ellipse fill="none" stroke="black" cx="2019.75" cy="-18" rx="196.94" ry="18"/>
<text text-anchor="middle" x="2019.75" y="-13.32" font-family="Times,serif" font-size="14.00">Estela ad Astra &lt;work@estela.moe&gt;</text>
</g>
<!-- 8&#45;&gt;12 -->
<g id="edge31" class="edge">
<title>8&#45;&gt;12</title>
<path fill="none" stroke="black" d="M2408.17,-90.95C2326.41,-75.81 2201.31,-52.63 2115.3,-36.7"/>
<polygon fill="black" stroke="black" points="2116.18,-33.3 2105.71,-34.92 2114.91,-40.19 2116.18,-33.3"/>
<text text-anchor="middle" x="2324" y="-57.95" font-family="Times,serif" font-size="14.00">Careful</text>
</g>
<!-- 13 -->
<g id="node14" class="node">
<title>13</title>
<ellipse fill="none" stroke="black" cx="3991.75" cy="-285.75" rx="199.57" ry="18"/>
<text text-anchor="middle" x="3991.75" y="-281.07" font-family="Times,serif" font-size="14.00">Clansty Icaria &lt;clansty@moegirl.us&gt;</text>
</g>
<!-- 14 -->
<g id="node15" class="node">
<title>14</title>
<ellipse fill="none" stroke="black" cx="3721.75" cy="-375" rx="139.59" ry="18"/>
<text text-anchor="middle" x="3721.75" y="-370.32" font-family="Times,serif" font-size="14.00">Clansty Icaria &lt;i@0w.al&gt;</text>
</g>
<!-- 14&#45;&gt;0 -->
<g id="edge1" class="edge">
<title>14&#45;&gt;0</title>
<path fill="none" stroke="black" d="M3638.57,-360.17C3546.14,-344.81 3396.89,-320.01 3297.81,-303.54"/>
<polygon fill="black" stroke="black" points="3298.52,-300.11 3288.08,-301.93 3297.37,-307.02 3298.52,-300.11"/>
<text text-anchor="middle" x="3532" y="-325.7" font-family="Times,serif" font-size="14.00">Default</text>
</g>
<!-- 14&#45;&gt;1 -->
<g id="edge6" class="edge">
<title>14&#45;&gt;1</title>
<path fill="none" stroke="black" d="M3582.18,-373.71C2984.33,-372 669.75,-360.61 669.75,-286.75 669.75,-286.75 669.75,-286.75 669.75,-106.25 669.75,-74.12 598.6,-51.86 530.03,-37.87"/>
<polygon fill="black" stroke="black" points="531.03,-34.5 520.55,-35.99 529.67,-41.37 531.03,-34.5"/>
<text text-anchor="middle" x="696" y="-191.82" font-family="Times,serif" font-size="14.00">Default</text>
</g>
<!-- 14&#45;&gt;7 -->
<g id="edge22" class="edge">
<title>14&#45;&gt;7</title>
<path fill="none" stroke="black" d="M3859.24,-371.72C4076.24,-366.26 4473.75,-347.91 4473.75,-286.75 4473.75,-286.75 4473.75,-286.75 4473.75,-106.25 4473.75,-80.65 4492.52,-58.71 4511.15,-43.23"/>
<polygon fill="black" stroke="black" points="4513.28,-46.01 4519.01,-37.1 4508.97,-40.49 4513.28,-46.01"/>
<text text-anchor="middle" x="4500" y="-191.82" font-family="Times,serif" font-size="14.00">Default</text>
</g>
<!-- 14&#45;&gt;8 -->
<g id="edge25" class="edge">
<title>14&#45;&gt;8</title>
<path fill="none" stroke="black" d="M3583.25,-372.51C3061.98,-366.25 1243.43,-338.11 1159.25,-249.75 1128.16,-217.11 1086.72,-217.89 1203.75,-143.25 1249.23,-114.25 1957.95,-109.08 2303.78,-108.3"/>
<polygon fill="black" stroke="black" points="2303.66,-111.8 2313.65,-108.28 2303.65,-104.8 2303.66,-111.8"/>
<text text-anchor="middle" x="1186" y="-236.45" font-family="Times,serif" font-size="14.00">Default</text>
</g>
<!-- 14&#45;&gt;13 -->
<g id="edge32" class="edge">
<title>14&#45;&gt;13</title>
<path fill="none" stroke="black" d="M3771.91,-357.79C3816.33,-343.44 3881.37,-322.42 3929.19,-306.97"/>
<polygon fill="black" stroke="black" points="3930.15,-310.33 3938.59,-303.93 3928,-303.67 3930.15,-310.33"/>
<text text-anchor="middle" x="3907" y="-325.7" font-family="Times,serif" font-size="14.00">Careful</text>
</g>
<!-- 14&#45;&gt;15 -->
<g id="edge33" class="edge">
<title>14&#45;&gt;15</title>
<path fill="none" stroke="black" d="M3722.44,-356.76C3723.64,-326.44 3726.14,-263.31 3727.61,-226.28"/>
<polygon fill="black" stroke="black" points="3731.11,-226.46 3728.01,-216.33 3724.11,-226.18 3731.11,-226.46"/>
<text text-anchor="middle" x="3752" y="-281.07" font-family="Times,serif" font-size="14.00">Careful</text>
</g>
<!-- 14&#45;&gt;16 -->
<g id="edge35" class="edge">
<title>14&#45;&gt;16</title>
<path fill="none" stroke="black" d="M3861,-373.04C3986.42,-368.86 4157.51,-353.79 4200.75,-303.75 4220.34,-281.08 4203.39,-247.3 4186.75,-223.94"/>
<polygon fill="black" stroke="black" points="4189.69,-222.04 4180.89,-216.14 4184.1,-226.24 4189.69,-222.04"/>
<text text-anchor="middle" x="4235" y="-281.07" font-family="Times,serif" font-size="14.00">Careful</text>
</g>
</g>
</svg>
