<?xml version="1.0" encoding="UTF-8" standalone="no"?>
<!DOCTYPE svg PUBLIC "-//W3C//DTD SVG 1.1//EN"
 "http://www.w3.org/Graphics/SVG/1.1/DTD/svg11.dtd">
<!-- Generated by graphviz version 10.0.1 (0)
 -->
<!-- Pages: 1 -->
<svg width="2576pt" height="312pt"
 viewBox="0.00 0.00 2575.65 311.75" xmlns="http://www.w3.org/2000/svg" xmlns:xlink="http://www.w3.org/1999/xlink">
<g id="graph0" class="graph" transform="scale(1 1) rotate(0) translate(4 307.75)">
<polygon fill="white" stroke="none" points="-4,4 -4,-307.75 2571.65,-307.75 2571.65,4 -4,4"/>
<!-- 0 -->
<g id="node1" class="node">
<title>0</title>
<ellipse fill="none" stroke="black" cx="404.75" cy="-18" rx="404.75" ry="18"/>
<text text-anchor="middle" x="404.75" y="-13.32" font-family="Times,serif" font-size="14.00">Cryolitia (https://github.com/project&#45;trans only) &lt;cryolitia@project&#45;trans.org&gt;</text>
</g>
<!-- 1 -->
<g id="node2" class="node">
<title>1</title>
<ellipse fill="none" stroke="black" cx="1534.75" cy="-196.5" rx="179.05" ry="18"/>
<text text-anchor="middle" x="1534.75" y="-191.82" font-family="Times,serif" font-size="14.00">Cryolitia &lt;Cryolitia@gmail.com&gt;</text>
</g>
<!-- 1&#45;&gt;0 -->
<g id="edge1" class="edge">
<title>1&#45;&gt;0</title>
<path fill="none" stroke="black" d="M1446.06,-180.45C1363.1,-166.33 1235.75,-144.56 1125.25,-125.25 947.16,-94.13 903.72,-79.68 724.75,-54 678.15,-47.31 627.56,-41.24 580.66,-36.09"/>
<polygon fill="black" stroke="black" points="581.28,-32.64 570.96,-35.04 580.53,-39.6 581.28,-32.64"/>
<text text-anchor="middle" x="1152" y="-102.58" font-family="Times,serif" font-size="14.00">Careful</text>
</g>
<!-- 2 -->
<g id="node3" class="node">
<title>2</title>
<ellipse fill="none" stroke="black" cx="2217.75" cy="-107.25" rx="155.9" ry="18"/>
<text text-anchor="middle" x="2217.75" y="-102.58" font-family="Times,serif" font-size="14.00">Clansty Icaria &lt;i@gao4.pw&gt;</text>
</g>
<!-- 1&#45;&gt;2 -->
<g id="edge7" class="edge">
<title>1&#45;&gt;2</title>
<path fill="none" stroke="black" d="M1642.6,-181.72C1768.67,-165.62 1976.36,-139.09 2104.65,-122.7"/>
<polygon fill="black" stroke="black" points="2105.07,-126.17 2114.54,-121.43 2104.18,-119.23 2105.07,-126.17"/>
<text text-anchor="middle" x="1963" y="-147.2" font-family="Times,serif" font-size="14.00">Default</text>
</g>
<!-- 4 -->
<g id="node5" class="node">
<title>4</title>
<ellipse fill="none" stroke="black" cx="1843.75" cy="-107.25" rx="200.1" ry="18"/>
<text text-anchor="middle" x="1843.75" y="-102.58" font-family="Times,serif" font-size="14.00">Clansty Icaria &lt;hujl634@gmail.com&gt;</text>
</g>
<!-- 1&#45;&gt;4 -->
<g id="edge9" class="edge">
<title>1&#45;&gt;4</title>
<path fill="none" stroke="black" d="M1558.97,-178.29C1566.89,-172.65 1575.71,-166.32 1583.75,-160.5 1594.25,-152.9 1595.27,-148.18 1607.25,-143.25 1630.58,-133.66 1656.15,-126.65 1681.6,-121.54"/>
<polygon fill="black" stroke="black" points="1682.22,-124.98 1691.39,-119.67 1680.91,-118.11 1682.22,-124.98"/>
<text text-anchor="middle" x="1633" y="-147.2" font-family="Times,serif" font-size="14.00">Default</text>
</g>
<!-- 6 -->
<g id="node7" class="node">
<title>6</title>
<ellipse fill="none" stroke="black" cx="2401.75" cy="-18" rx="165.9" ry="18"/>
<text text-anchor="middle" x="2401.75" y="-13.32" font-family="Times,serif" font-size="14.00">Estela ad Astra &lt;i@estela.cn&gt;</text>
</g>
<!-- 1&#45;&gt;6 -->
<g id="edge13" class="edge">
<title>1&#45;&gt;6</title>
<path fill="none" stroke="black" d="M1537.05,-178.12C1541.28,-153.77 1552.74,-110.16 1582.25,-89.25 1699.52,-6.17 2083.62,-48.86 2226.75,-36 2241.05,-34.72 2255.99,-33.33 2270.87,-31.92"/>
<polygon fill="black" stroke="black" points="2271.09,-35.42 2280.71,-30.99 2270.43,-28.45 2271.09,-35.42"/>
<text text-anchor="middle" x="1608" y="-102.58" font-family="Times,serif" font-size="14.00">Careful</text>
</g>
<!-- 11 -->
<g id="node12" class="node">
<title>11</title>
<ellipse fill="none" stroke="black" cx="1361.75" cy="-107.25" rx="175.37" ry="18"/>
<text text-anchor="middle" x="1361.75" y="-102.58" font-family="Times,serif" font-size="14.00">Estela ad Astra &lt;i@estela.moe&gt;</text>
</g>
<!-- 1&#45;&gt;11 -->
<g id="edge19" class="edge">
<title>1&#45;&gt;11</title>
<path fill="none" stroke="black" d="M1437.01,-181.07C1412.08,-175.71 1389.66,-168.86 1380.25,-160.5 1373.35,-154.37 1369.03,-145.49 1366.31,-136.79"/>
<polygon fill="black" stroke="black" points="1369.73,-136.05 1363.96,-127.17 1362.94,-137.71 1369.73,-136.05"/>
<text text-anchor="middle" x="1406" y="-147.2" font-family="Times,serif" font-size="14.00">Careful</text>
</g>
<!-- 3 -->
<g id="node4" class="node">
<title>3</title>
<ellipse fill="none" stroke="black" cx="1749.75" cy="-285.75" rx="139.59" ry="18"/>
<text text-anchor="middle" x="1749.75" y="-281.07" font-family="Times,serif" font-size="14.00">Clansty Icaria &lt;i@0w.al&gt;</text>
</g>
<!-- 3&#45;&gt;0 -->
<g id="edge3" class="edge">
<title>3&#45;&gt;0</title>
<path fill="none" stroke="black" d="M1617.22,-279.87C1530.68,-275.27 1415.47,-266.45 1314.75,-249.75 993.18,-196.43 618.66,-85.59 470.18,-39.64"/>
<polygon fill="black" stroke="black" points="471.5,-36.39 460.91,-36.77 469.43,-43.07 471.5,-36.39"/>
<text text-anchor="middle" x="926" y="-147.2" font-family="Times,serif" font-size="14.00">Default</text>
</g>
<!-- 3&#45;&gt;1 -->
<g id="edge4" class="edge">
<title>3&#45;&gt;1</title>
<path fill="none" stroke="black" d="M1708.81,-268.13C1674.06,-254.03 1624.02,-233.73 1586.51,-218.5"/>
<polygon fill="black" stroke="black" points="1588.26,-215.44 1577.68,-214.92 1585.63,-221.92 1588.26,-215.44"/>
<text text-anchor="middle" x="1687" y="-236.45" font-family="Times,serif" font-size="14.00">Default</text>
</g>
<!-- 3&#45;&gt;2 -->
<g id="edge6" class="edge">
<title>3&#45;&gt;2</title>
<path fill="none" stroke="black" d="M1889,-283.79C2014.42,-279.61 2185.51,-264.54 2228.75,-214.5 2247.18,-193.18 2239.86,-159.74 2230.86,-136.08"/>
<polygon fill="black" stroke="black" points="2234.19,-134.96 2227.13,-127.06 2227.72,-137.64 2234.19,-134.96"/>
<text text-anchor="middle" x="2266" y="-191.82" font-family="Times,serif" font-size="14.00">Careful</text>
</g>
<!-- 3&#45;&gt;4 -->
<g id="edge8" class="edge">
<title>3&#45;&gt;4</title>
<path fill="none" stroke="black" d="M1747.18,-267.43C1744.76,-245.42 1743.43,-206.88 1758.25,-178.5 1768.31,-159.25 1786.16,-143.3 1802.96,-131.49"/>
<polygon fill="black" stroke="black" points="1804.5,-134.67 1810.87,-126.2 1800.61,-128.85 1804.5,-134.67"/>
<text text-anchor="middle" x="1784" y="-191.82" font-family="Times,serif" font-size="14.00">Careful</text>
</g>
<!-- 5 -->
<g id="node6" class="node">
<title>5</title>
<ellipse fill="none" stroke="black" cx="2019.75" cy="-196.5" rx="199.57" ry="18"/>
<text text-anchor="middle" x="2019.75" y="-191.82" font-family="Times,serif" font-size="14.00">Clansty Icaria &lt;clansty@moegirl.us&gt;</text>
</g>
<!-- 3&#45;&gt;5 -->
<g id="edge10" class="edge">
<title>3&#45;&gt;5</title>
<path fill="none" stroke="black" d="M1799.91,-268.54C1844.33,-254.19 1909.37,-233.17 1957.19,-217.72"/>
<polygon fill="black" stroke="black" points="1958.15,-221.08 1966.59,-214.68 1956,-214.42 1958.15,-221.08"/>
<text text-anchor="middle" x="1935" y="-236.45" font-family="Times,serif" font-size="14.00">Careful</text>
</g>
<!-- 3&#45;&gt;6 -->
<g id="edge12" class="edge">
<title>3&#45;&gt;6</title>
<path fill="none" stroke="black" d="M1888.02,-283.19C1977.02,-279.92 2094.71,-271.34 2196.75,-249.75 2242.86,-239.99 2257.12,-239.99 2296.75,-214.5 2343.09,-184.71 2357.71,-174.31 2382.75,-125.25 2395.19,-100.89 2399.62,-69.76 2401.13,-47.51"/>
<polygon fill="black" stroke="black" points="2404.62,-47.83 2401.63,-37.67 2397.63,-47.48 2404.62,-47.83"/>
<text text-anchor="middle" x="2399" y="-147.2" font-family="Times,serif" font-size="14.00">Default</text>
</g>
<!-- 3&#45;&gt;11 -->
<g id="edge18" class="edge">
<title>3&#45;&gt;11</title>
<path fill="none" stroke="black" d="M1611.85,-282.55C1493.09,-277.4 1334.62,-261.57 1294.25,-214.5 1272.14,-188.72 1301.76,-155.07 1328.45,-132.62"/>
<polygon fill="black" stroke="black" points="1330.55,-135.42 1336.13,-126.42 1326.15,-129.98 1330.55,-135.42"/>
<text text-anchor="middle" x="1320" y="-191.82" font-family="Times,serif" font-size="14.00">Default</text>
</g>
<!-- 7 -->
<g id="node8" class="node">
<title>7</title>
<ellipse fill="none" stroke="black" cx="1294.75" cy="-18" rx="196.94" ry="18"/>
<text text-anchor="middle" x="1294.75" y="-13.32" font-family="Times,serif" font-size="14.00">Estela ad Astra &lt;work@estela.moe&gt;</text>
</g>
<!-- 8 -->
<g id="node9" class="node">
<title>8</title>
<ellipse fill="none" stroke="black" cx="1679.75" cy="-18" rx="169.58" ry="18"/>
<text text-anchor="middle" x="1679.75" y="-13.32" font-family="Times,serif" font-size="14.00">Estela ad Astra &lt;i@estela.cat&gt;</text>
</g>
<!-- 9 -->
<g id="node10" class="node">
<title>9</title>
<ellipse fill="none" stroke="black" cx="2042.75" cy="-18" rx="175.37" ry="18"/>
<text text-anchor="middle" x="2042.75" y="-13.32" font-family="Times,serif" font-size="14.00">Estela ad Astra &lt;jo@estela.cat&gt;</text>
</g>
<!-- 10 -->
<g id="node11" class="node">
<title>10</title>
<ellipse fill="none" stroke="black" cx="953.75" cy="-18" rx="125.92" ry="18"/>
<text text-anchor="middle" x="953.75" y="-13.32" font-family="Times,serif" font-size="14.00">saeziae &lt;i@estela.cn&gt;</text>
</g>
<!-- 11&#45;&gt;0 -->
<g id="edge2" class="edge">
<title>11&#45;&gt;0</title>
<path fill="none" stroke="black" d="M1220.8,-96.24C1193.23,-90.92 1165.17,-82.99 1140.25,-71.25 1129.79,-66.32 1131.47,-58.36 1120.75,-54 1110.64,-49.88 896.47,-39.76 705,-31.46"/>
<polygon fill="black" stroke="black" points="705.24,-27.97 695.09,-31.03 704.93,-34.96 705.24,-27.97"/>
<text text-anchor="middle" x="1167" y="-57.95" font-family="Times,serif" font-size="14.00">Default</text>
</g>
<!-- 11&#45;&gt;1 -->
<g id="edge5" class="edge">
<title>11&#45;&gt;1</title>
<path fill="none" stroke="black" d="M1399.33,-125.31C1411.35,-130.89 1424.67,-137.21 1436.75,-143.25 1455.64,-152.68 1476.3,-163.61 1493.77,-173.02"/>
<polygon fill="black" stroke="black" points="1491.85,-175.96 1502.31,-177.65 1495.18,-169.81 1491.85,-175.96"/>
<text text-anchor="middle" x="1492.75" y="-147.2" font-family="Times,serif" font-size="14.00">Casual</text>
</g>
<!-- 11&#45;&gt;6 -->
<g id="edge11" class="edge">
<title>11&#45;&gt;6</title>
<path fill="none" stroke="black" d="M1444.43,-91.01C1463.43,-85.99 1483.19,-79.52 1500.75,-71.25 1512.48,-65.73 1511.99,-58.19 1524.25,-54 1598.14,-28.74 2148.82,-40.78 2226.75,-36 2242.6,-35.03 2259.22,-33.75 2275.66,-32.33"/>
<polygon fill="black" stroke="black" points="2275.84,-35.83 2285.5,-31.46 2275.23,-28.86 2275.84,-35.83"/>
<text text-anchor="middle" x="1550" y="-57.95" font-family="Times,serif" font-size="14.00">Careful</text>
</g>
<!-- 11&#45;&gt;7 -->
<g id="edge14" class="edge">
<title>11&#45;&gt;7</title>
<path fill="none" stroke="black" d="M1315.46,-89.62C1307.85,-84.84 1300.94,-78.81 1296.25,-71.25 1291.95,-64.3 1290.49,-55.78 1290.4,-47.65"/>
<polygon fill="black" stroke="black" points="1293.89,-47.95 1291,-37.76 1286.91,-47.53 1293.89,-47.95"/>
<text text-anchor="middle" x="1322" y="-57.95" font-family="Times,serif" font-size="14.00">Careful</text>
</g>
<!-- 11&#45;&gt;8 -->
<g id="edge15" class="edge">
<title>11&#45;&gt;8</title>
<path fill="none" stroke="black" d="M1360.39,-89.19C1360.47,-77.57 1362.71,-62.76 1372.25,-54 1375.7,-50.83 1466.5,-40.75 1548.54,-32.21"/>
<polygon fill="black" stroke="black" points="1548.69,-35.71 1558.28,-31.2 1547.97,-28.75 1548.69,-35.71"/>
<text text-anchor="middle" x="1398" y="-57.95" font-family="Times,serif" font-size="14.00">Careful</text>
</g>
<!-- 11&#45;&gt;9 -->
<g id="edge16" class="edge">
<title>11&#45;&gt;9</title>
<path fill="none" stroke="black" d="M1394.26,-89.21C1404.2,-83.73 1415.06,-77.46 1424.75,-71.25 1435.66,-64.26 1436.03,-58.3 1448.25,-54 1491.32,-38.84 1813.2,-39.1 1858.75,-36 1875.03,-34.89 1892.1,-33.55 1909.01,-32.12"/>
<polygon fill="black" stroke="black" points="1908.92,-35.64 1918.58,-31.29 1908.32,-28.67 1908.92,-35.64"/>
<text text-anchor="middle" x="1474" y="-57.95" font-family="Times,serif" font-size="14.00">Careful</text>
</g>
<!-- 11&#45;&gt;10 -->
<g id="edge17" class="edge">
<title>11&#45;&gt;10</title>
<path fill="none" stroke="black" d="M1295.26,-90.2C1275.42,-84.82 1253.77,-78.36 1234.25,-71.25 1217.02,-64.97 1214.35,-59.19 1196.75,-54 1182.95,-49.92 1116.04,-40.4 1055.93,-32.32"/>
<polygon fill="black" stroke="black" points="1056.67,-28.89 1046.3,-31.03 1055.74,-35.83 1056.67,-28.89"/>
<text text-anchor="middle" x="1260" y="-57.95" font-family="Times,serif" font-size="14.00">Careful</text>
</g>
</g>
</svg>
